<?xml version="1.0" encoding="utf-8"?>
<!-- Generator: Adobe Illustrator 24.0.1, SVG Export Plug-In . SVG Version: 6.00 Build 0)  -->
<svg version="1.1" id="Layer_1" xmlns="http://www.w3.org/2000/svg" xmlns:xlink="http://www.w3.org/1999/xlink" x="0px" y="0px"
	 viewBox="0 0 326.5 273" style="enable-background:new 0 0 326.5 273;" xml:space="preserve">
<style type="text/css">
	.st0{fill:#369AC1;}
	.st1{fill:#113B56;}
	.st2{fill:#0F627C;}
</style>
<g>
	<path class="st0" d="M161.1,147.4c0,0-25.6-0.3-26.1,4.4s16.6,10.5,16.6,10.5L161.1,147.4z"/>
	<g>
		<path class="st0" d="M275.5,20.3c0,0-24.4-10.6-59.8,23.7l32.2,19.9l31.8,20.6C295.5,37.8,275.5,20.3,275.5,20.3z"/>
		<path class="st1" d="M247.8,64l0.1-0.1L215.7,44c-8.8,8.5-18.2,19.8-28.1,34.6l-26.5,68.7l24.3,15.4l-0.1,0.1l24.3,15.4l50.8-53.4
			c9.2-15.4,15.4-28.7,19.3-40.3L247.8,64z"/>
		<g>
			
				<rect x="159.6" y="148.2" transform="matrix(0.5346 -0.8451 0.8451 0.5346 -58.9462 218.0083)" class="st2" width="17.7" height="28.7"/>
			
				<rect x="184" y="163.5" transform="matrix(0.5346 -0.8451 0.8451 0.5346 -60.6037 245.7302)" class="st2" width="17.7" height="28.7"/>
		</g>
		<path class="st0" d="M209.6,178.1c0,0,11.3,23,7.2,25.5s-16.6-10.5-16.6-10.5L209.6,178.1z"/>
	</g>
	<path class="st0" d="M171.8,182.7L171.8,182.7c-1.6-1-2.1-3.2-1.1-4.8l9.2-14.5c1-1.6,3.2-2.1,4.8-1.1l0,0c1.6,1,2.1,3.2,1.1,4.8
		l-9.2,14.5C175.6,183.2,173.4,183.7,171.8,182.7z"/>
	
		<ellipse transform="matrix(0.1602 -0.9871 0.9871 0.1602 91.3508 304.9699)" class="st0" cx="224.9" cy="98.8" rx="33.8" ry="33.8"/>
	<circle class="st0" cx="224.9" cy="98.8" r="27.9"/>
	<path class="st2" d="M219.5,124.2c-20.3-11.1-14-38.2-14-38.2c0-0.2,0-0.4,0-0.5c0.2-2.6,2.4-1.1,3.8-1.1c0,0,2,0.3,3.5,0.3
		c1.6,0,3.7-0.6,3.7,1.5c0,0.9-0.9,2.6-1.1,3.5c-1.1,4.5,0.5,8.9,2.3,12.8l7-11.1c3.6-5.7,11.3-7.5,17-3.8l10.8,6.8
		c-1.2-7.7-5.6-14.8-12.7-19.3c-13-8.2-30.3-4.4-38.5,8.7c-8.2,13-4.4,30.3,8.7,38.5c2.7,1.7,5.5,2.9,8.4,3.6L219.5,124.2z"/>
</g>
<path class="st0" d="M155.5,178.1c1.8-2.1-30.7,28.2-43.5,61.7c0,0-10.7-34.9-37.1-18.5c0,0-20-6.4-25.7,15c0,0-20,10.7-7.1,30.7
	h154.8c0,0,11.9-23.5-18.7-30.7c0,0-7.8-13.5-26.3-5c0,0-7.1-5-12.1,0.7c0,0,13.4-30.2,27.1-44.9c0,0-14.8,10.7-31.9,35.5
	C135,222.5,132.7,204.1,155.5,178.1z"/>
<path class="st0" d="M126.2,115.5c-24.7,0-44.7-20-44.7-44.7c0-11.4,4.3-21.9,11.4-29.8c-19.6,4.7-34.2,22.4-34.2,43.4
	c0,24.7,20,44.7,44.7,44.7c13.2,0,25.1-5.8,33.3-14.9C133.3,115.1,129.8,115.5,126.2,115.5z"/>
<path class="st0" d="M282.8,179.3l-2.5-2c-0.6-0.4-1.3-0.5-1.9-0.1l-2.6,1.7c-1.3,0.9-3-0.5-2.4-1.9l1.1-3c0.2-0.7,0-1.4-0.5-1.9
	l-2.5-2c-1.2-1-0.5-3,1.1-2.9l3.2,0.1c0.7,0,1.4-0.4,1.6-1.1l1.1-3c0.6-1.5,2.7-1.4,3.1,0.1l0.8,3.1c0.2,0.7,0.8,1.2,1.5,1.2
	l3.2,0.1c1.6,0.1,2.2,2.1,0.8,3l-2.6,1.7c-0.6,0.4-0.9,1.1-0.7,1.8l0.8,3.1C285.8,179.1,284,180.3,282.8,179.3z"/>
<path class="st0" d="M103.6,174.5l-2.5-2c-0.6-0.4-1.3-0.5-1.9-0.1l-2.6,1.7c-1.3,0.9-3-0.5-2.4-1.9l1.1-3c0.2-0.7,0-1.4-0.5-1.9
	l-2.5-2c-1.2-1-0.5-3,1.1-2.9l3.2,0.1c0.7,0,1.4-0.4,1.6-1.1l1.1-3c0.6-1.5,2.7-1.4,3.1,0.1l0.8,3.1c0.2,0.7,0.8,1.2,1.5,1.2
	l3.2,0.1c1.6,0.1,2.2,2.1,0.8,3l-2.6,1.7c-0.6,0.4-0.9,1.1-0.7,1.8l0.8,3.1C106.6,174.3,104.8,175.5,103.6,174.5z"/>
</svg>
