<?xml version="1.0" encoding="utf-8"?>
<!-- Generator: Adobe Illustrator 24.0.1, SVG Export Plug-In . SVG Version: 6.00 Build 0)  -->
<svg version="1.1" id="Layer_1" xmlns="http://www.w3.org/2000/svg" xmlns:xlink="http://www.w3.org/1999/xlink" x="0px" y="0px"
	 viewBox="0 0 326.5 273" style="enable-background:new 0 0 326.5 273;" xml:space="preserve">
<style type="text/css">
	.st0{fill:#FEFEFE;}
	.st1{fill:#0F627C;}
	.st2{fill:#369AC1;}
	.st3{fill:#113B56;}
</style>
<g id="AQW3BW_1_">
	<g>
		<path class="st0" d="M123.4,61.6c-0.1,1.5-0.4,2.9-0.4,4.4c0,38.1,0,76.2,0,114.3c0,9.1,3.2,12.3,12.2,12.3c47.9,0,95.9,0,143.8,0
			c9.8,0,12.7-3,12.7-12.8c0-37.8,0-75.6,0-113.3c0-1.6-0.2-3.3-0.4-4.9c-5.6-8.6-11.2-17.2-16.8-25.8c-1.1-1.7-2.6-2.2-4.6-2.2
			c-41.7,0-83.4,0-125.2,0c-2,0-3.5,0.5-4.6,2.2C134.6,44.4,129,53,123.4,61.6z"/>
		<path class="st1" d="M291.4,61.6c0.1,1.6,0.4,3.3,0.4,4.9c0,37.8,0,75.6,0,113.3c0,9.8-3,12.8-12.7,12.8c-47.9,0-95.9,0-143.8,0
			c-9.1,0-12.2-3.2-12.2-12.3c0-38.1,0-76.2,0-114.3c0-1.5,0.2-2.9,0.4-4.4c16.9,0,33.9,0,50.8,0C213.3,61.7,252.3,61.7,291.4,61.6z
			 M207,94.7c5.3,0,10.6,0.1,15.9,0c4.8-0.1,8.2-3.6,8-7.7c-0.2-3.8-3.3-6.4-8-6.4c-10.3-0.1-20.6-0.1-30.9,0c-5,0-8.2,2.7-8.3,6.6
			c-0.1,4.1,3.4,7.4,8.2,7.5C197.1,94.8,202,94.7,207,94.7z"/>
		<path class="st2" d="M291.4,61.6c-39,0-78.1,0-117.1,0c-16.9,0-33.9,0-50.8,0c5.6-8.6,11.2-17.2,16.8-25.8
			c1.1-1.7,2.6-2.2,4.6-2.2c41.7,0,83.4,0,125.2,0c2,0,3.5,0.5,4.6,2.2C280.1,44.4,285.8,53,291.4,61.6z"/>
		<path class="st2" d="M207,94.7c-5,0-10,0.1-14.9,0c-4.9-0.1-8.3-3.4-8.2-7.5c0.1-4,3.3-6.6,8.3-6.6c10.3,0,20.6-0.1,30.9,0
			c4.7,0,7.8,2.6,8,6.4c0.2,4.1-3.2,7.6-8,7.7C217.6,94.8,212.3,94.7,207,94.7z"/>
	</g>
</g>
<g id="UDifFS.tif">
	<g>
		<path class="st3" d="M182,44c-22.1,0-44.1,0-66.2,0c-22.6,0-45.1,0-67.7,0c-9.1,0-14,4.6-14,13.1c0,35.3,0,70.7,0,106
			c0,8.6,5,13.5,13.7,13.5c11.3,0.1,22.6-0.1,33.8,0.1c2.1,0,5.3-1.6,6.1,1.4c0.7,2.7-1.7,4.9-3.7,6.6c-0.9,0.7-2,1.2-3,1.8
			c-1.7,1-4.1,1.9-3.6,4.2c0.6,2.6,3.2,1.8,5.1,1.8c13.8,0.1,27.5,0,41.3,0c8.1,0,16.3,0,24.4,0c1.9,0,4.4,0.3,5-2.2
			c0.7-2.8-1.9-3-3.7-3.6c-2.5-0.8-4.4-2.2-5.7-4.5c-2.5-4.3-1.9-5.6,3-5.6c11.1-0.1,22.2,0,33.3,0c12,0,16.6-4.5,16.6-16.5
			c0-33.9,0-67.7,0-101.5C196.8,48,192.7,44,182,44z M176.6,134c0,4-1.2,5.5-5.4,5.5c-37.5-0.1-75-0.1-112.4,0
			c-4.1,0-5.5-1.3-5.5-5.5c0.1-21.7,0.2-43.4,0-65.2c0-4.3,1.2-5.8,5.7-5.8c18.7,0.2,37.5,0.1,56.2,0.1c18.6,0,37.1,0.1,55.7-0.1
			c4.3,0,5.8,1.3,5.8,5.7C176.4,90.6,176.4,112.3,176.6,134z"/>
		<path class="st2" d="M176.6,134c0,4-1.2,5.5-5.4,5.5c-37.5-0.1-75-0.1-112.4,0c-4.1,0-5.5-1.3-5.5-5.5c0.1-21.7,0.2-43.4,0-65.2
			c0-4.3,1.2-5.8,5.7-5.8c18.7,0.2,37.5,0.1,56.2,0.1c18.6,0,37.1,0.1,55.7-0.1c4.3,0,5.8,1.3,5.8,5.7
			C176.4,90.6,176.4,112.3,176.6,134z"/>
		<path class="st3" d="M114.9,236.3c-34.3,0-68.7,0-103,0c-2.3,0-5.4,1.1-6.5-2.1c-1-3,0-5.7,2.4-8.1c7.4-7.2,14.6-14.5,21.8-21.8
			c2-2.1,4.2-2.9,7.1-2.9c52.8,0,105.5,0,158.3,0c3,0,5.4,0.9,7.5,3.1c6.9,7.4,13.9,14.7,20.9,22c1.6,1.7,2.3,3.5,2.3,5.8
			c0,2.6-1.1,4.1-3.8,4.1c-1.7,0-3.3,0-5,0.1C183,236.3,148.9,236.3,114.9,236.3z"/>
	</g>
</g>
<g id="DEVYAB.tif">
	<g>
		<path class="st3" d="M304,219.5c1.1,0,2.2,0.1,3.3,0v-5.6c-1.2,0-2.4,0-3.6,0c-0.5,0-0.7-0.2-0.7-0.7c0-1,0-2,0-2.9
			c0-0.6-0.2-1.1-0.4-1.7c-2-3.6-3.9-7.3-5.9-11c-0.4-0.7-0.4-0.8,0.5-0.8c1.8,0,3.5,0,5.3,0c0.6,0,0.9-0.2,0.8-0.8c0-2,0-4.1,0-6.1
			c0-0.4-0.1-0.7-0.4-1.1c-5.7-6.9-11.4-13.9-17.1-20.8c-0.3-0.4-0.6-0.5-1.1-0.5c-20.6,0-41.1,0-61.7,0c-0.7,0-1,0.4-1.2,0.8
			c-5,8-10.1,15.9-15.2,23.9c-0.3,0.5-0.8,1-1.2,1.5c-3.6,3.6-4.9,7.9-3.3,12.7c1.5,4.8,5,7.6,9.9,8.5c0.4,0.1,0.7,0,1.2,0.2
			c-3.9,2-6.4,5.1-7,9.4c-0.7,4.3,0.8,8,4,11c-0.4,0.3-0.8,0.2-1.1,0.3c-5.6,1.1-9.7,6.2-9.8,11.9c-0.1,5.5,3.7,11.1,10.2,12.4
			c0.1,0,0.3,0.1,0.4,0.1h90.9c0-1.7,0-3.3,0-5c0-0.5-0.3-0.6-0.8-0.6h-4.1c-0.8,0-0.9-0.1-0.9-0.9c0-3.9,0-7.8,0-11.7
			c0-0.7,0.2-0.9,0.9-0.9c1.3,0,2.7,0,4,0c0.6,0,0.9-0.2,0.9-0.8c0-1.8-0.3-1.6,1.6-1.6c1.7,0,3.4,0,5.1,0V233c-1.1,0-2.2,0-3.3,0
			c-0.5,0-0.7-0.2-0.7-0.7c0-4,0-8.1,0-12.1C303.3,219.7,303.5,219.5,304,219.5z M207.5,204.9c-1-2.6-0.2-5.5,1.9-7.4
			c0.6-0.5,1.3-0.8,2.1-0.8c13.2,0,26.4,0,39.6,0h39.7c1.2,0,1.2,0,1.2,1.2v10.5c0,0.8,0,0.9-0.9,0.9c-25.8,0-51.5,0-77.3,0
			C211,209.3,208.5,207.6,207.5,204.9z M289.2,253.4c0,1.1,0,1.1-1.1,1.1h-21.6c-18.2,0-36.3,0-54.5,0c-1.9,0-3.7-0.4-5.1-1.8
			c-2-1.9-2.7-4.8-1.8-7.3c1-2.6,3.3-4.3,6.2-4.4c5.5,0,11,0,16.5,0c7.3,0,14.5,0,21.8,0h38c0.2,0,0.5,0,0.7,0c0.9,0,0.9,0,0.9,0.9
			V253.4z M297.7,232.4c0,0.5-0.2,0.7-0.7,0.7c-0.2,0-0.5,0-0.7,0h-39c-12.9,0-25.9,0-38.8,0c-3.2,0-5.8-2-6.6-4.9
			c-1.1-4,1.6-8,5.7-8.5c0.6-0.1,1.2-0.1,1.8-0.1h76.9c0.2,0,0.5,0,0.7,0c0.5,0,0.7,0.2,0.7,0.6V232.4z"/>
		<path class="st2" d="M289.2,242v11.4c0,1.1,0,1.1-1.1,1.1h-21.6c-18.2,0-36.3,0-54.5,0c-1.9,0-3.7-0.4-5.1-1.8
			c-2-1.9-2.7-4.8-1.8-7.3c1-2.6,3.3-4.3,6.2-4.4c5.5,0,11,0,16.5,0c7.3,0,14.5,0,21.8,0h38c0.2,0,0.5,0,0.7,0
			C289.2,241.1,289.2,241.1,289.2,242z"/>
		<path class="st1" d="M297.7,220.1v12.2c0,0.5-0.2,0.7-0.7,0.7c-0.2,0-0.5,0-0.7,0h-39c-12.9,0-25.9,0-38.8,0c-3.2,0-5.8-2-6.6-4.9
			c-1.1-4,1.6-8,5.7-8.5c0.6-0.1,1.2-0.1,1.8-0.1h76.9c0.2,0,0.5,0,0.7,0C297.4,219.5,297.7,219.7,297.7,220.1z"/>
		<path class="st2" d="M292,198v10.5c0,0.8,0,0.9-0.9,0.9c-25.8,0-51.5,0-77.3,0c-2.8,0-5.3-1.8-6.3-4.4c-1-2.6-0.2-5.5,1.9-7.4
			c0.6-0.5,1.3-0.8,2.1-0.8c13.2,0,26.4,0,39.6,0h39.7C292,196.8,292,196.8,292,198z"/>
	</g>
</g>
<g id="DEVYAB.tif_1_">
	<g>
		<path class="st3" d="M115.9,213.8c1.1,0,2.2,0.1,3.3,0v-5.6c-1.2,0-2.4,0-3.6,0c-0.5,0-0.7-0.2-0.7-0.7c0-1,0-2,0-2.9
			c0-0.6-0.2-1.1-0.4-1.7c-2-3.6-3.9-7.3-5.9-11c-0.4-0.7-0.4-0.8,0.5-0.8c1.8,0,3.5,0,5.3,0c0.6,0,0.9-0.2,0.8-0.8c0-2,0-4.1,0-6.1
			c0-0.4-0.1-0.7-0.4-1.1c-5.7-6.9-11.4-13.9-17.1-20.8c-0.3-0.4-0.6-0.5-1.1-0.5c-20.6,0-41.1,0-61.7,0c-0.7,0-1,0.4-1.2,0.8
			c-5,8-10.1,15.9-15.2,23.9c-0.3,0.5-0.8,1-1.2,1.5c-3.6,3.6-4.9,7.9-3.3,12.7c1.5,4.8,5,7.6,9.9,8.5c0.4,0.1,0.7,0,1.2,0.2
			c-3.9,2-6.4,5.1-7,9.4c-0.7,4.3,0.8,8,4,11c-0.4,0.3-0.8,0.2-1.1,0.3c-5.6,1.1-9.7,6.2-9.8,11.9c-0.1,5.5,3.7,11.1,10.2,12.4
			c0.1,0,0.3,0.1,0.4,0.1h90.9c0-1.7,0-3.3,0-5c0-0.5-0.3-0.6-0.8-0.6h-4.1c-0.8,0-0.9-0.1-0.9-0.9c0-3.9,0-7.8,0-11.7
			c0-0.7,0.2-0.9,0.9-0.9c1.3,0,2.7,0,4,0c0.6,0,0.9-0.2,0.9-0.8c0-1.8-0.3-1.6,1.6-1.6c1.7,0,3.4,0,5.1,0v-5.6c-1.1,0-2.2,0-3.3,0
			c-0.5,0-0.7-0.2-0.7-0.7c0-4,0-8.1,0-12.1C115.1,214,115.3,213.8,115.9,213.8z M19.4,199.2c-1-2.6-0.2-5.5,1.9-7.4
			c0.6-0.5,1.3-0.8,2.1-0.8c13.2,0,26.4,0,39.6,0h39.7c1.2,0,1.2,0,1.2,1.2v10.5c0,0.8,0,0.9-0.9,0.9c-25.8,0-51.5,0-77.3,0
			C22.8,203.6,20.4,201.8,19.4,199.2z M101.1,247.7c0,1.1,0,1.1-1.1,1.1H78.3c-18.2,0-36.3,0-54.5,0c-1.9,0-3.7-0.4-5.1-1.8
			c-2-1.9-2.7-4.8-1.8-7.3c1-2.6,3.3-4.3,6.2-4.4c5.5,0,11,0,16.5,0c7.3,0,14.5,0,21.8,0h38c0.2,0,0.5,0,0.7,0c0.9,0,0.9,0,0.9,0.9
			V247.7z M109.5,226.6c0,0.5-0.2,0.7-0.7,0.7c-0.2,0-0.5,0-0.7,0h-39c-12.9,0-25.9,0-38.8,0c-3.2,0-5.8-2-6.6-4.9
			c-1.1-4,1.6-8,5.7-8.5c0.6-0.1,1.2-0.1,1.8-0.1h76.9c0.2,0,0.5,0,0.7,0c0.5,0,0.7,0.2,0.7,0.6V226.6z"/>
		<path class="st2" d="M101.1,236.3v11.4c0,1.1,0,1.1-1.1,1.1H78.3c-18.2,0-36.3,0-54.5,0c-1.9,0-3.7-0.4-5.1-1.8
			c-2-1.9-2.7-4.8-1.8-7.3c1-2.6,3.3-4.3,6.2-4.4c5.5,0,11,0,16.5,0c7.3,0,14.5,0,21.8,0h38c0.2,0,0.5,0,0.7,0
			C101,235.4,101.1,235.4,101.1,236.3z"/>
		<path class="st1" d="M109.5,214.4v12.2c0,0.5-0.2,0.7-0.7,0.7c-0.2,0-0.5,0-0.7,0h-39c-12.9,0-25.9,0-38.8,0c-3.2,0-5.8-2-6.6-4.9
			c-1.1-4,1.6-8,5.7-8.5c0.6-0.1,1.2-0.1,1.8-0.1h76.9c0.2,0,0.5,0,0.7,0C109.3,213.7,109.5,213.9,109.5,214.4z"/>
		<path class="st2" d="M103.8,192.2v10.5c0,0.8,0,0.9-0.9,0.9c-25.8,0-51.5,0-77.3,0c-2.8,0-5.3-1.8-6.3-4.4c-1-2.6-0.2-5.5,1.9-7.4
			c0.6-0.5,1.3-0.8,2.1-0.8c13.2,0,26.4,0,39.6,0h39.7C103.8,191,103.8,191,103.8,192.2z"/>
	</g>
</g>
</svg>
